<?xml version="1.0" encoding="utf-8"?>
<!-- Generator: Adobe Illustrator 17.1.0, SVG Export Plug-In . SVG Version: 6.00 Build 0)  -->
<!DOCTYPE svg PUBLIC "-//W3C//DTD SVG 1.1//EN" "http://www.w3.org/Graphics/SVG/1.1/DTD/svg11.dtd">
<svg version="1.1" id="Layer_1" xmlns="http://www.w3.org/2000/svg" xmlns:xlink="http://www.w3.org/1999/xlink" x="0px" y="0px"
	 viewBox="0 0 118 118" enable-background="new 0 0 118 118" xml:space="preserve">
<g>
	<path fill="#FFFFFF" d="M59,0.627C26.762,0.627,0.627,26.762,0.627,59S26.762,117.373,59,117.373
		c32.238,0,58.372-26.134,58.372-58.372S91.238,0.627,59,0.627z M59,112.265C29.583,112.265,5.735,88.417,5.735,59
		C5.735,29.583,29.583,5.735,59,5.735c29.417,0,53.265,23.848,53.265,53.265C112.265,88.417,88.417,112.265,59,112.265z"/>
	<path fill="#FFFFFF" d="M59,17.41C36.03,17.41,17.41,36.03,17.41,59S36.03,100.59,59,100.59S100.591,81.97,100.591,59
		S81.97,17.41,59,17.41z M49.5,85.044V31.409l26.817,26.817L49.5,85.044z"/>
</g>
</svg>
